<svg width="922" height="276" viewBox="0 0 922 276" fill="none" xmlns="http://www.w3.org/2000/svg">
<g opacity="0.04">
<path d="M345.863 324.822C325.992 319.361 312.766 308.493 311.774 284.87C308.557 205.107 358.775 117.338 317.828 44.9693C296.752 7.83534 252.469 -14.3923 197.273 -22.8532C-63.6869 -62.4821 -250.265 73.8898 -299.447 135.861C-349.859 199.355 -290.706 259.73 -241.027 294.3C-179.842 336.918 -107.753 374.948 -79.6179 437.612C-49.9229 503.782 34.753 647.623 99.8551 698.734C145.787 734.794 242.039 772.16 318.778 750.393C395.517 728.626 451.676 650.697 497.492 598.324C543.308 545.952 825.122 591.937 835.878 535.636C850.34 459.93 745.891 415.284 672.976 389.119C599.043 362.603 517.78 344.782 432.471 334.191C400.88 330.346 368.917 331.196 345.863 324.822Z" stroke="#F4E6D3" stroke-width="3"/>
<path d="M-312.548 128.303C-366.291 195.972 -303.105 260.359 -250.236 297.247C-185.115 342.722 -108.075 383.214 -78.2172 450.118C-46.6068 520.688 23.828 663.946 93.2966 718.437C142.29 756.957 242.46 790.673 324.384 767.429C397.599 746.656 452.219 675.856 498.04 626.983C545.263 576.644 798.346 611.602 813.454 556.496C834.237 480.242 748.546 429.713 686.408 396.31C624.079 362.748 551.274 338.564 471.934 322.426C442.534 316.461 412.399 314.975 389.709 307.427C370.267 301.092 356.55 290.144 352.806 268.252C347.231 235.242 348.461 201.796 348.009 169.255C347.671 141.486 345.901 114.336 336.596 88.5769C332.105 76.0783 325.209 64.0489 315.818 52.0868C290.134 19.6579 244.505 -0.81316 187.346 -9.57866C102.458 -22.434 24.1574 -20.3967 -45.3212 -8.26425C-175.539 14.3753 -274.521 80.36 -312.548 128.303Z" stroke="#F4E6D3" stroke-width="3"/>
<path d="M-325.82 120.756C-382.896 192.605 -315.821 261.05 -259.615 300.216C-190.406 348.509 -108.708 391.548 -76.8304 462.612C-43.3032 537.588 12.9062 680.362 86.5966 738.279C138.632 779.161 242.893 809.282 329.71 784.643C399.547 764.824 452.604 701.059 498.307 655.83C547.086 607.486 771.597 631.465 790.592 577.58C817.848 500.736 750.65 444.502 699.441 403.812C648.447 363.381 584.524 332.601 511.156 310.911C484.117 302.882 455.812 299.059 433.314 290.276C414.28 282.967 399.903 271.88 393.427 251.82C383.45 220.898 377.395 190.679 369.429 161.75C362.758 137.26 354.891 113.75 340.793 91.1544C334.036 80.4678 324.828 70.0496 313.397 59.5146C283.568 31.7699 235.979 13.1242 177.152 3.97002C94.6124 -8.81564 16.9691 -10.8139 -54.2064 -3.43227C-177.878 9.23423 -282.502 66.1642 -325.82 120.756Z" stroke="#F4E6D3" stroke-width="3"/>
<path d="M-339.114 113.207C-399.501 189.337 -328.559 261.742 -269.139 303.328C-195.842 354.441 -109.313 400.087 -75.7331 475.297C-40.1409 554.637 1.6658 696.866 79.5794 758.209C134.658 801.455 242.863 828.018 334.87 801.901C401.179 783.078 452.991 726.373 498.552 684.694C548.91 638.447 744.788 651.237 767.844 598.634C801.723 521.159 752.901 459.359 712.583 411.175C673.079 363.828 617.894 326.489 550.479 299.141C525.655 289.089 499.328 282.884 477.045 272.966C458.42 264.682 443.404 253.556 434.342 235.29C419.963 206.458 406.619 179.47 391.112 154.057C378.127 132.951 364.286 112.942 345.245 93.5552C336.346 84.5401 324.87 75.9362 311.354 66.6286C277.525 43.5315 227.977 26.7133 167.333 17.2122C87.041 4.73958 10.2474 -1.1389 -62.8619 1.12701C-180.033 5.00052 -290.503 51.9608 -339.114 113.207Z" stroke="#F4E6D3" stroke-width="3"/>
<path d="M-352.427 105.689C-416.148 185.998 -341.316 262.462 -278.558 306.327C-201.298 360.399 -109.984 408.451 -74.3838 487.821C-36.8743 571.567 -9.30845 713.299 72.9534 777.924C131.096 823.634 243.371 846.492 340.441 819.039C403.219 801.215 453.954 751.639 499.032 713.398C551.138 669.312 718.387 671.003 745.289 619.428C786.089 541.243 755.233 474.102 725.96 418.378C697.699 364.398 651.385 320.354 589.949 287.446C567.49 275.328 542.995 266.781 520.928 255.728C502.734 246.569 487.057 235.305 475.24 218.776C456.138 192.022 435.99 168.344 412.792 146.494C393.764 128.591 373.65 112.173 349.563 96.2412C338.521 88.8998 324.753 82.0114 309.05 74.1762C271.493 55.5476 219.564 40.7858 157.253 30.8962C79.1895 18.6369 3.35949 9.37827 -71.7493 6.22217C-182.222 1.45411 -298.396 37.6452 -352.427 105.689Z" stroke="#F4E6D3" stroke-width="3"/>
<path d="M-365.763 98.2525C-432.815 182.734 -354.097 263.25 -288.003 309.389C-206.658 366.276 -110.541 416.829 -73.2397 500.337C-33.8148 588.481 -20.6669 729.64 65.9841 797.745C127.167 845.814 243.379 865.104 345.634 836.175C404.876 819.353 454.531 776.917 499.145 742.221C553.144 700.261 691.721 690.746 722.219 640.49C770.109 561.663 756.763 489.21 738.834 425.865C721.677 365.295 684.386 314.505 628.892 275.835C608.674 261.793 586.139 250.763 564.415 238.432C546.653 228.398 530.168 217.04 515.912 202.268C492.11 177.695 465.238 156.989 434.244 138.95C409.194 124.356 383.103 111.448 353.777 98.8166C340.739 93.1087 324.806 87.7953 306.766 81.4762C265.757 67.1365 211.347 54.6774 147.053 44.3833C71.2239 32.3387 -3.99163 20.227 -80.9117 11.0586C-184.75 -1.26625 -306.44 23.5574 -365.763 98.2525Z" stroke="#F4E6D3" stroke-width="3"/>
<path d="M-378.947 91.0523C-449.323 179.69 -366.75 264.142 -297.474 312.59C-212.053 372.279 -111.291 425.367 -71.9763 513.013C-30.4927 605.497 -31.7673 746.054 59.0933 817.566C123.309 867.985 243.615 883.763 350.727 853.347C406.573 837.489 455.016 802.346 499.139 771.102C555.048 731.379 665.078 710.615 699.147 661.588C754.294 582.193 758.269 504.283 751.691 433.327C745.47 366.119 717.357 308.549 668.004 264.283C650.008 248.219 629.31 234.848 607.954 221.343C590.604 210.336 573.336 198.985 556.642 185.974C527.994 163.631 494.717 145.919 455.739 131.536C424.646 120.154 392.41 110.701 358.038 101.533C342.859 97.5021 324.762 93.7653 304.41 89.0646C260.055 78.7749 202.897 68.8061 136.923 58.0254C63.3381 46.1978 -11.6305 31.662 -89.8066 16.1121C-187.839 -3.3168 -314.507 9.66054 -378.947 91.0523Z" stroke="#F4E6D3" stroke-width="3"/>
<path d="M-392.311 83.8994C-465.984 176.784 -379.391 265.222 -306.791 315.93C-217.3 378.416 -111.752 433.99 -70.721 525.849C-27.3292 622.704 -42.8565 762.702 52.3553 837.572C119.475 890.478 243.823 902.539 356.102 870.657C408.4 855.807 455.968 828.078 499.553 800.09C557.56 762.767 638.867 730.697 676.481 682.804C738.926 603.053 760.031 519.535 764.825 441.076C769.394 367.279 750.483 303.037 707.252 253.078C691.479 234.995 672.619 219.285 651.633 204.606C634.571 192.77 616.498 181.327 597.346 169.977C563.899 150.069 523.982 134.991 477.236 124.526C440.228 116.215 401.871 110.318 362.331 104.757C345.159 102.362 324.876 100.102 302.066 97.062C254.347 90.7228 194.466 83.3459 126.839 72.1804C55.4583 60.3698 -19.7827 43.8811 -98.6854 21.4817C-191.348 -4.92341 -322.587 -4.12109 -392.311 83.8994Z" stroke="#F4E6D3" stroke-width="3"/>
<path d="M366.469 107.544C268.946 103.159 90.2253 100.767 -107.611 26.8206C-195.595 -6.1467 -330.535 -17.8697 -405.687 76.814C-482.675 173.837 -392.215 266.296 -316.442 319.303C-223.032 384.623 -112.703 442.679 -69.6623 538.659C-24.2168 639.837 -54.1647 779.207 45.2463 857.471C115.391 912.717 243.798 921.163 361.092 887.859C478.385 854.555 583.047 783.996 653.104 703.909C723.139 623.722 760.905 534.628 777.366 448.59C810.663 273.948 726.396 144.875 498.423 117.121C455.503 111.88 411.026 109.54 366.469 107.544Z" stroke="#F4E6D3" stroke-width="3"/>
</g>
</svg>
