<svg width="615" height="455" viewBox="0 0 615 455" fill="none" xmlns="http://www.w3.org/2000/svg">
<g opacity="0.04">
<path d="M39.7853 144.459C19.9135 138.997 6.68742 128.129 5.69599 104.507C2.47905 24.7441 52.6971 -63.0254 11.75 -135.394C-9.32569 -172.528 -53.609 -194.756 -108.805 -203.217C-369.765 -242.846 -556.343 -106.474 -605.525 -44.5026C-655.938 18.9916 -596.785 79.3666 -547.105 113.936C-485.92 156.554 -413.831 194.585 -385.696 257.249C-356.001 323.418 -271.325 467.26 -206.223 518.371C-160.291 554.43 -64.0395 591.797 12.6999 570.03C89.4393 548.263 145.598 470.333 191.414 417.961C237.23 365.588 519.043 411.574 529.8 355.273C544.262 279.567 439.812 234.921 366.898 208.756C292.965 182.24 211.702 164.418 126.393 153.828C94.8021 149.983 62.8386 150.832 39.7853 144.459Z" stroke="#F4E6D3" stroke-width="3"/>
<path d="M-618.626 -52.0601C-672.369 15.6092 -609.183 79.9966 -556.315 116.884C-491.193 162.359 -414.153 202.851 -384.295 269.755C-352.685 340.325 -282.25 483.583 -212.782 538.074C-163.788 576.594 -63.6176 610.31 18.3063 587.066C91.5212 566.293 146.141 495.493 191.962 446.62C239.185 396.281 492.268 431.239 507.376 376.133C528.159 299.879 442.468 249.35 380.33 215.947C318.001 182.385 245.195 158.201 165.856 142.063C136.456 136.098 106.321 134.612 83.6305 127.064C64.1888 120.729 50.4722 109.781 46.7281 87.8889C41.1525 54.8794 42.3828 21.4335 41.9306 -11.1079C41.5927 -38.8774 39.8231 -66.0271 30.5174 -91.786C26.0273 -104.285 19.131 -116.314 9.73954 -128.276C-15.9445 -160.705 -61.5735 -181.176 -118.732 -189.942C-203.621 -202.797 -281.921 -200.76 -351.399 -188.627C-481.617 -165.988 -580.599 -100.003 -618.626 -52.0601Z" stroke="#F4E6D3" stroke-width="3"/>
<path d="M-631.898 -59.6072C-688.974 12.2413 -621.899 80.6869 -565.693 119.852C-496.484 168.145 -414.786 211.184 -382.908 282.249C-349.381 357.224 -293.172 499.999 -219.482 557.915C-167.446 598.798 -63.1849 628.918 23.6316 604.28C93.4686 584.46 146.526 520.695 192.229 475.467C241.008 427.122 465.519 451.102 484.514 397.217C511.77 320.372 444.571 264.139 393.363 223.448C342.369 183.018 278.446 152.238 205.078 130.547C178.039 122.519 149.734 118.695 127.236 109.913C108.202 102.603 93.8248 91.516 87.3489 71.4569C77.3724 40.5347 71.3172 10.3155 63.3506 -18.6135C56.6794 -43.1034 48.8127 -66.6133 34.7148 -89.2092C27.9579 -99.8957 18.7498 -110.314 7.319 -120.849C-22.5105 -148.594 -70.099 -167.239 -128.926 -176.394C-211.466 -189.179 -289.109 -191.177 -360.285 -183.796C-483.956 -171.129 -588.58 -114.199 -631.898 -59.6072Z" stroke="#F4E6D3" stroke-width="3"/>
<path d="M-645.192 -67.1568C-705.579 8.9732 -634.637 81.3782 -575.217 122.965C-501.92 174.077 -415.392 219.723 -381.811 294.933C-346.219 374.274 -304.412 516.502 -226.499 577.845C-171.421 621.092 -63.2148 647.655 28.7914 621.537C95.1008 602.714 146.913 546.01 192.474 504.331C242.832 458.084 438.71 470.873 461.766 418.271C495.645 340.796 446.823 278.996 406.505 230.811C367 183.465 311.816 146.126 244.401 118.777C219.577 108.726 193.25 102.52 170.967 92.6026C152.342 84.3182 137.326 73.1926 128.264 54.9265C113.885 26.0946 100.541 -0.893887 85.0338 -26.3067C72.0486 -47.4128 58.2075 -67.4211 39.1674 -86.8084C30.2682 -95.8234 18.7917 -104.427 5.27626 -113.735C-28.5529 -136.832 -78.1014 -153.65 -138.745 -163.151C-219.037 -175.624 -295.831 -181.502 -368.94 -179.237C-486.111 -175.363 -596.581 -128.403 -645.192 -67.1568Z" stroke="#F4E6D3" stroke-width="3"/>
<path d="M-658.505 -74.6747C-722.226 5.63458 -647.394 82.0981 -584.636 125.963C-507.376 180.036 -416.062 228.087 -380.462 307.458C-342.952 391.204 -315.387 532.935 -233.125 597.561C-174.982 643.271 -62.7076 666.128 34.3625 638.675C97.1408 620.852 147.876 571.276 192.954 533.034C245.06 488.949 412.309 490.639 439.211 439.064C480.011 360.879 449.155 293.739 419.882 238.015C391.621 184.035 345.307 139.991 283.871 107.082C261.412 94.9643 236.917 86.4179 214.85 75.3648C196.656 66.2054 180.979 54.9416 169.162 38.4128C150.06 11.6582 129.912 -12.0198 106.714 -33.8698C87.6854 -51.7722 67.5723 -68.1907 43.4851 -84.1223C32.4429 -91.4637 18.6753 -98.3521 2.97139 -106.187C-34.5848 -124.816 -86.5138 -139.578 -148.825 -149.467C-226.889 -161.727 -302.719 -170.985 -377.827 -174.141C-488.3 -178.909 -604.475 -142.718 -658.505 -74.6747Z" stroke="#F4E6D3" stroke-width="3"/>
<path d="M-671.842 -82.1108C-738.893 2.37087 -660.175 82.8866 -594.081 129.026C-512.736 185.913 -416.619 236.466 -379.318 319.974C-339.893 408.118 -326.745 549.277 -240.094 617.382C-178.911 665.45 -62.6994 684.741 39.5559 655.812C98.7979 638.99 148.452 596.554 193.067 561.857C247.066 519.898 385.643 510.383 416.141 460.126C464.031 381.299 450.684 308.847 432.756 245.502C415.599 184.932 378.308 134.142 322.814 95.4715C302.596 81.4302 280.06 70.3994 258.337 58.0689C240.575 48.0351 224.09 36.6763 209.834 21.9044C186.032 -2.66783 159.16 -23.3741 128.166 -41.4132C103.116 -56.0072 77.0252 -68.9156 47.6985 -81.5467C34.661 -87.2546 18.7277 -92.5679 0.687842 -98.8871C-40.3212 -113.227 -94.7313 -125.686 -159.025 -135.98C-234.854 -148.025 -310.07 -160.136 -386.99 -169.305C-490.828 -181.63 -612.518 -156.806 -671.842 -82.1108Z" stroke="#F4E6D3" stroke-width="3"/>
<path d="M-685.026 -89.3107C-755.401 -0.672926 -672.828 83.7794 -603.553 132.227C-518.132 191.916 -417.37 245.004 -378.054 332.65C-336.571 425.134 -337.845 565.691 -246.985 637.203C-182.769 687.622 -62.4628 703.4 44.6491 672.984C100.495 657.126 148.938 621.983 193.061 590.739C248.97 551.016 359 530.252 393.069 481.225C448.216 401.83 452.191 323.92 445.613 252.964C439.392 185.756 411.279 128.186 361.926 83.9196C343.93 67.8562 323.232 54.485 301.876 40.9798C284.526 29.9727 267.258 18.6218 250.564 5.61049C221.916 -16.7318 188.639 -34.4445 149.661 -48.8272C118.568 -60.2092 86.3318 -69.6624 51.9603 -78.8302C36.781 -82.861 18.6834 -86.5977 -1.6684 -91.2985C-46.0227 -101.588 -103.181 -111.557 -169.155 -122.338C-242.74 -134.165 -317.709 -148.701 -395.885 -164.251C-493.917 -183.68 -620.585 -170.703 -685.026 -89.3107Z" stroke="#F4E6D3" stroke-width="3"/>
<path d="M-698.389 -96.4645C-772.062 -3.58009 -685.469 84.858 -612.87 135.566C-523.378 198.052 -417.83 253.626 -376.799 345.485C-333.407 442.341 -348.935 582.338 -253.723 657.208C-186.604 710.114 -62.2554 722.175 50.0237 690.293C102.322 675.443 149.89 647.714 193.474 619.726C251.482 582.403 332.789 550.334 370.403 502.441C432.848 422.689 453.953 339.171 458.747 260.712C463.316 186.915 444.405 122.673 401.174 72.7146C385.401 54.631 366.541 38.9208 345.555 24.2423C328.493 12.4057 310.42 0.963301 291.268 -10.3866C257.82 -30.2952 217.904 -45.3728 171.157 -55.8376C134.15 -64.1492 95.7927 -70.0456 56.2532 -75.6065C39.0808 -78.0016 18.798 -80.2621 -4.01224 -83.3019C-51.7312 -89.6411 -111.612 -97.018 -179.239 -108.184C-250.62 -119.994 -325.861 -136.483 -404.764 -158.882C-497.426 -185.287 -628.666 -184.485 -698.389 -96.4645Z" stroke="#F4E6D3" stroke-width="3"/>
<path d="M60.3908 -72.819C-37.1319 -77.204 -215.853 -79.5966 -413.689 -153.543C-501.673 -186.51 -636.614 -198.233 -711.765 -103.549C-788.754 -6.52604 -698.293 85.933 -622.52 138.94C-529.111 204.26 -418.781 262.316 -375.74 358.296C-330.295 459.474 -360.243 598.844 -260.832 677.108C-190.687 732.354 -62.2797 740.8 55.0138 707.496C172.307 674.192 276.969 603.632 347.026 523.546C417.061 443.359 454.826 354.265 471.288 268.227C504.585 93.5847 420.318 -35.4878 192.345 -63.2418C149.425 -68.4828 104.948 -70.8228 60.3908 -72.819Z" stroke="#F4E6D3" stroke-width="3"/>
</g>
</svg>
