<svg width="179" height="143" viewBox="0 0 179 143" fill="none" xmlns="http://www.w3.org/2000/svg">
<g opacity="0.04">
<path d="M115.75 48.8645L53.2207 77.9969L47.5832 68.1521L105.023 30.1759L115.75 48.8645Z" fill="#F7F2EF"/>
<path d="M166.948 206.773C139.989 219.036 105.772 207.942 90.7372 182.06C75.6897 156.155 85.4208 125.097 112.381 112.834C139.374 100.556 173.55 111.641 188.598 137.546C203.632 163.428 193.941 194.495 166.948 206.773ZM97.1508 86.604C54.9673 105.792 39.8327 154.173 63.3532 194.663C74.5478 213.935 92.4758 227.943 112.736 235.27C113.196 235.437 113.653 235.597 114.107 235.753C114.656 235.94 115.203 236.126 115.755 236.305C116.122 236.42 116.487 236.542 116.854 236.657C117.499 236.853 118.153 237.052 118.806 237.238C118.835 237.251 118.861 237.26 118.883 237.263C132.813 241.271 147.595 242.201 161.885 239.611C161.894 239.614 161.894 239.614 161.9 239.612C162.591 239.478 163.282 239.345 163.975 239.204C163.975 239.204 163.985 239.206 163.99 239.204C164.681 239.057 165.368 238.906 166.058 238.746C166.405 238.669 166.751 238.592 167.097 238.502C168.781 238.092 170.453 237.626 172.115 237.118C172.536 236.987 172.955 236.856 173.378 236.718C173.992 236.513 174.606 236.307 175.224 236.093C177.621 235.251 179.99 234.301 182.328 233.237C224.512 214.049 239.646 165.669 216.123 125.173C192.602 84.6819 139.334 67.4158 97.1508 86.604Z" fill="#F7F2EF"/>
</g>
</svg>
